<svg xmlns="http://www.w3.org/2000/svg" width="1440" height="900" viewBox="0 0 1440 900" role="img" aria-labelledby="title desc">
  <title id="title">명인전자 메인 에어컨 설치 이미지</title>
  <desc id="desc">밝은 거실과 사무공간 분위기에 스탠드형 에어컨과 벽걸이형 에어컨이 설치된 메인 배너 이미지</desc>
  <defs>
    <linearGradient id="wall" x1="0" y1="0" x2="1" y2="1">
      <stop stop-color="#f7fbff"/>
      <stop offset=".55" stop-color="#e9f2f8"/>
      <stop offset="1" stop-color="#fff"/>
    </linearGradient>
    <linearGradient id="floor" x1="0" y1=".25" x2="1" y2="1">
      <stop stop-color="#d8b98f"/>
      <stop offset=".55" stop-color="#ecd8bb"/>
      <stop offset="1" stop-color="#bd9368"/>
    </linearGradient>
    <linearGradient id="stand" x1="0" y1="0" x2="1" y2="1">
      <stop stop-color="#ffffff"/>
      <stop offset=".55" stop-color="#edf4f8"/>
      <stop offset="1" stop-color="#cbd9e3"/>
    </linearGradient>
    <filter id="shadow" x="-30%" y="-30%" width="160%" height="160%">
      <feDropShadow dx="0" dy="22" stdDeviation="18" flood-color="#122033" flood-opacity=".18"/>
    </filter>
    <filter id="soft" x="-20%" y="-20%" width="140%" height="140%">
      <feGaussianBlur stdDeviation="12"/>
    </filter>
  </defs>

  <rect width="1440" height="900" fill="url(#wall)"/>
  <path d="M0 545h1440v355H0z" fill="url(#floor)"/>
  <path d="M0 590h1440" stroke="#fff" stroke-opacity=".65" stroke-width="3"/>

  <g opacity=".42">
    <path d="M62 856 535 546M215 900 695 546M390 900 870 546M567 900 1046 546M745 900 1225 546M924 900 1400 546" stroke="#a97e55" stroke-width="3"/>
    <path d="M0 718h1440M0 790h1440M0 860h1440" stroke="#f5e5cd" stroke-width="3"/>
  </g>

  <g transform="translate(860 92)">
    <rect width="330" height="298" rx="8" fill="#dcebf4"/>
    <rect x="20" y="18" width="290" height="260" fill="#f9fdff"/>
    <path d="M20 82h290M20 148h290M20 214h290M90 18v260M162 18v260M236 18v260" stroke="#d8e4ec" stroke-width="3"/>
    <path d="M0 0h330v298H0z" fill="#fff" opacity=".22"/>
  </g>

  <g transform="translate(115 380)" filter="url(#shadow)">
    <rect x="0" y="64" width="442" height="122" rx="32" fill="#d8e1e8"/>
    <rect x="34" y="24" width="378" height="96" rx="28" fill="#f5f8fa"/>
    <circle cx="92" cy="202" r="23" fill="#9aa8b5"/>
    <circle cx="352" cy="202" r="23" fill="#9aa8b5"/>
    <path d="M58 108h320" stroke="#b7c5cf" stroke-width="5" stroke-linecap="round"/>
  </g>

  <g transform="translate(160 186)" filter="url(#shadow)">
    <rect width="420" height="86" rx="20" fill="url(#stand)"/>
    <rect x="34" y="55" width="350" height="9" rx="4.5" fill="#aab8c5"/>
    <circle cx="364" cy="34" r="10" fill="#88a8bb"/>
    <path d="M40 25h226" stroke="#ffffff" stroke-width="12" stroke-linecap="round" opacity=".74"/>
  </g>

  <g transform="translate(1012 330)" filter="url(#shadow)">
    <ellipse cx="122" cy="442" rx="136" ry="28" fill="#172230" opacity=".16" filter="url(#soft)"/>
    <rect x="46" y="0" width="152" height="448" rx="34" fill="url(#stand)" stroke="#c2d0dc" stroke-width="2"/>
    <rect x="76" y="52" width="92" height="114" rx="12" fill="#17202c"/>
    <path d="M88 72h68M88 92h68M88 112h68M88 132h68" stroke="#687887" stroke-width="5" stroke-linecap="round"/>
    <circle cx="122" cy="222" r="30" fill="#f7fbff" stroke="#c2d0dc" stroke-width="2"/>
    <path d="M95 294h54M95 318h54M95 342h54" stroke="#cfdae3" stroke-width="5" stroke-linecap="round"/>
    <path d="M70 20c32 18 78 20 105 0" fill="none" stroke="#fff" stroke-width="12" stroke-linecap="round" opacity=".65"/>
  </g>

  <g transform="translate(625 495)">
    <rect x="0" y="0" width="250" height="118" rx="12" fill="#fff" opacity=".92" filter="url(#shadow)"/>
    <rect x="28" y="35" width="194" height="16" rx="8" fill="#d9e7ef"/>
    <rect x="28" y="68" width="150" height="12" rx="6" fill="#e8f0f5"/>
    <rect x="195" y="64" width="28" height="22" rx="8" fill="#0b77c5" opacity=".78"/>
  </g>

  <g transform="translate(640 140)">
    <path d="M33 24c62-25 151-30 242 10" fill="none" stroke="#51aee8" stroke-width="8" stroke-linecap="round" opacity=".22"/>
    <path d="M5 74c82-32 196-34 312 14" fill="none" stroke="#51aee8" stroke-width="8" stroke-linecap="round" opacity=".18"/>
    <path d="M62 126c72-21 159-15 236 24" fill="none" stroke="#51aee8" stroke-width="8" stroke-linecap="round" opacity=".16"/>
  </g>

  <rect width="1440" height="900" fill="url(#wall)" opacity=".1"/>
</svg>
